# xmcd
#
# Track frame offsets:
#	150
#	47388
#	75320
#	112975
#	138813
#	153105
#	174953
#
# Disc length: 2734 seconds
#
# Revision: 1
# Processed by: cddbd v1.5.2PL0 Copyright (c) Steve Scherf et al.
# Submitted via: audiograbber 1.83.01
#
DISCID=3c0aac07
DTITLE=NRPS - 71-12-10 Fox Theatre, St Louis MO
DYEAR=1900
DGENRE=
TTITLE0=Dirty Business
TTITLE1=Connection
TTITLE2=Last Lonely Eagle
TTITLE3=Glendale Train
TTITLE4=Hello Mary Lou
TTITLE5=Louisiana Lady
TTITLE6=Willie and The Hand Jive
EXTD=
EXTT0=
EXTT1=
EXTT2=
EXTT3=
EXTT4=
EXTT5=
EXTT6=
PLAYORDER=
